<svg xmlns="http://www.w3.org/2000/svg" xmlns:svg="http://www.w3.org/2000/svg" id="svg2" width="744.094" height="1052.362" version="1.1"><defs id="defs4"><marker id="DotL" orient="auto" refX="0" refY="0" style="overflow:visible"><path id="path3661" d="M -2.5,-1.0 C -2.5,1.7600000 -4.7400000,4.0 -7.5,4.0 C -10.260000,4.0 -12.5,1.7600000 -12.5,-1.0 C -12.5,-3.7600000 -10.260000,-6.0 -7.5,-6.0 C -4.7400000,-6.0 -2.5,-3.7600000 -2.5,-1.0 z" transform="scale(0.8) translate(7.4, 1)" style="fill-rule:evenodd;stroke:#000;stroke-width:1pt;marker-start:none;marker-end:none"/></marker><marker id="Arrow1Lend" orient="auto" refX="0" refY="0" style="overflow:visible"><path id="path3602" d="M 0.0,0.0 L 5.0,-5.0 L -12.5,0.0 L 5.0,5.0 L 0.0,0.0 z" transform="scale(0.8) rotate(180) translate(12.5,0)" style="fill-rule:evenodd;stroke:#000;stroke-width:1pt;marker-start:none"/></marker></defs><metadata id="metadata7"/><g id="layer1"><text style="font-size:18px;font-style:normal;font-weight:400;fill:#000;fill-opacity:1;stroke:none;font-family:Bitstream Vera Sans" id="text4044-7" x="18.494" y="259.643" xml:space="preserve"><tspan id="tspan4046-4" x="18.494" y="259.643"><tspan style="font-size:36px" id="tspan4048-1">X</tspan>2</tspan></text><text style="font-size:18px;font-style:normal;font-weight:400;fill:#000;fill-opacity:1;stroke:none;font-family:Bitstream Vera Sans" id="text4044-7-0" x="18.424" y="143.928" xml:space="preserve"><tspan id="tspan4046-4-9" x="18.424" y="143.928"><tspan style="font-size:36px" id="tspan4048-1-8">X</tspan>1</tspan></text><g id="g4680"><path id="path2816" d="m 378.57141,170.21933 a 57.142857,53.57143 0 1 1 -114.28571,0 57.142857,53.57143 0 1 1 114.28571,0 z" style="fill:none;stroke:#000;stroke-width:2;stroke-linejoin:bevel;stroke-miterlimit:4;stroke-opacity:1;stroke-dasharray:none;stroke-dashoffset:0"/><path id="path2818" d="m 82.857143,242.36218 c 122.857147,1.42857 122.857147,1.42857 122.857147,1.42857 l 67.14285,-44.28571" style="fill:none;stroke:#000;stroke-width:2;stroke-linecap:butt;stroke-linejoin:miter;stroke-opacity:1;stroke-miterlimit:4;stroke-dasharray:none;marker-end:url(#Arrow1Lend);marker-start:url(#DotL)"/><path id="path2820" d="m 80,135.21932 c 128.57143,0 128.57143,0 128.57143,0 l 52.85714,25.71429" style="fill:none;stroke:#000;stroke-width:2;stroke-linecap:butt;stroke-linejoin:miter;stroke-opacity:1;stroke-miterlimit:4;stroke-dasharray:none;marker-end:url(#Arrow1Lend);marker-start:url(#DotL)"/><path id="path2822" d="m 80,63.790754 c 135.71429,-1.428572 135.71429,-1.428572 135.71429,-1.428572 l 80,58.571428" style="fill:none;stroke:#000;stroke-width:2;stroke-linecap:butt;stroke-linejoin:miter;stroke-opacity:1;stroke-miterlimit:4;stroke-dasharray:none;marker-end:url(#Arrow1Lend);marker-start:url(#DotL)"/><path id="path4294" d="m 324.28571,115.21932 c -2.85714,107.14286 -2.85714,107.14286 -2.85714,107.14286" style="fill:none;stroke:#000;stroke-width:1px;stroke-linecap:butt;stroke-linejoin:miter;stroke-opacity:1"/><text id="text4296" x="277.143" y="189.505" xml:space="preserve" style="font-size:56px;font-style:normal;font-weight:400;fill:#000;fill-opacity:1;stroke:none;font-family:Bitstream Vera Sans"><tspan id="tspan4298" x="277.143" y="189.505">Σ</tspan></text><text id="text4300" x="337.143" y="188.076" xml:space="preserve" style="font-size:56px;font-style:normal;font-weight:400;fill:#000;fill-opacity:1;stroke:none;font-family:Bitstream Vera Sans"><tspan id="tspan4302" x="337.143" y="188.076">f</tspan></text><path id="path4492" d="m 378.57143,168.79075 c 82.5,0.71429 82.5,0.71429 82.5,0.71429" style="fill:none;stroke:#000;stroke-width:2;stroke-linecap:butt;stroke-linejoin:miter;stroke-opacity:1;stroke-miterlimit:4;stroke-dasharray:none;marker-end:url(#Arrow1Lend)"/></g><text style="font-size:36px;font-style:normal;font-weight:400;fill:#000;fill-opacity:1;stroke:none;font-family:Bitstream Vera Sans" id="text4692" x="434.286" y="140.934" xml:space="preserve"><tspan id="tspan4694" x="434.286" y="140.934">y</tspan></text><text style="font-size:32px;font-style:normal;font-weight:400;fill:#000;fill-opacity:1;stroke:none;font-family:Bitstream Vera Sans" id="text2850" x="25.735" y="71.505" xml:space="preserve"><tspan id="tspan2852" x="25.735" y="71.505">1</tspan></text><text style="font-size:32px;font-style:normal;font-weight:400;fill:#000;fill-opacity:1;stroke:none;font-family:Bitstream Vera Sans" id="text2854" x="141.286" y="47.219" xml:space="preserve"><tspan id="tspan2856" x="141.286" y="47.219">0.1</tspan></text><text style="font-size:32px;font-style:normal;font-weight:400;fill:#000;fill-opacity:1;stroke:none;font-family:Bitstream Vera Sans" id="text2858" x="141.286" y="121.505" xml:space="preserve"><tspan id="tspan2860" x="141.286" y="121.505">0</tspan></text><text style="font-size:32px;font-style:normal;font-weight:400;fill:#000;fill-opacity:1;stroke:none;font-family:Bitstream Vera Sans" id="text2862" x="141.286" y="220.076" xml:space="preserve"><tspan id="tspan2864" x="141.286" y="220.076">0.3</tspan></text></g></svg>